<?xml version="1.0" standalone="no"?>
<!DOCTYPE svg PUBLIC "-//W3C//DTD SVG 20010904//EN"
 "http://www.w3.org/TR/2001/REC-SVG-20010904/DTD/svg10.dtd">
<svg version="1.0" xmlns="http://www.w3.org/2000/svg"
 width="700.000000pt" height="700.000000pt" viewBox="0 0 700.000000 700.000000"
 preserveAspectRatio="xMidYMid meet">
<metadata>
Created by potrace 1.11, written by Peter Selinger 2001-2013
</metadata>
<g transform="translate(0.000000,700.000000) scale(0.100000,-0.100000)"
fill="#000000" stroke="none">
<path d="M2527 6984 c-447 -68 -829 -353 -1025 -765 -41 -87 -96 -254 -107
-326 -3 -21 -8 -50 -12 -63 -3 -14 -7 -212 -10 -440 -2 -228 -5 -419 -7 -425
-2 -6 -168 -10 -473 -9 l-470 1 0 -2478 0 -2479 3077 0 3077 0 1 2457 c0 1352
-1 2467 -3 2479 -5 21 -5 21 -470 21 -256 0 -468 2 -471 5 -3 3 -6 184 -6 402
-1 389 -3 425 -35 576 -81 387 -364 744 -728 920 -196 96 -360 133 -580 134
-170 1 -237 -6 -369 -40 -111 -29 -287 -106 -372 -165 l-41 -28 -47 29 c-111
71 -289 145 -421 175 -134 32 -369 40 -508 19z m363 -319 c74 -11 204 -52 285
-90 l76 -36 -39 -47 c-104 -125 -219 -346 -248 -477 -1 -5 -9 -37 -17 -70 -9
-33 -19 -76 -23 -95 -4 -19 -9 -226 -11 -460 -3 -234 -6 -427 -9 -429 -3 -3
-1093 -5 -1184 -2 l-25 1 1 393 c2 415 7 472 54 617 69 208 225 412 407 531
152 99 277 143 493 173 28 4 195 -3 240 -9z m1523 1 c146 -25 208 -45 332
-108 297 -152 505 -449 551 -788 4 -30 8 -223 8 -429 1 -306 -1 -374 -12 -379
-18 -7 -1181 -9 -1192 -2 -5 3 -10 194 -13 425 -2 231 -6 431 -10 445 -4 14
-10 45 -13 70 -10 76 -73 256 -125 358 -27 53 -80 138 -118 189 l-69 92 75 36
c95 45 225 83 312 91 36 4 67 7 69 9 4 4 173 -4 205 -9z m-903 -343 c0 -5 13
-21 28 -38 96 -103 192 -325 218 -500 7 -50 14 -801 7 -820 -2 -6 -99 -10
-266 -9 l-262 1 0 369 c-1 488 12 580 111 777 59 119 164 258 164 220z"/>
</g>
</svg>
